<svg width="25" height="25" viewBox="0 0 25 25" fill="none" xmlns="http://www.w3.org/2000/svg">
<g id="north-star-24">
<path id="Union" d="M11.8613 1.96338C11.8613 1.54917 12.1971 1.21338 12.6113 1.21338C13.0255 1.21338 13.3613 1.54917 13.3613 1.96338V10.6527L17.9146 6.0994C18.2075 5.80651 18.6824 5.80651 18.9753 6.0994C19.2682 6.3923 19.2682 6.86717 18.9753 7.16006L14.422 11.7134H23.1113C23.5255 11.7134 23.8613 12.0492 23.8613 12.4634C23.8613 12.8776 23.5255 13.2134 23.1113 13.2134H14.422L18.9753 17.7667C19.2682 18.0596 19.2682 18.5345 18.9753 18.8273C18.6824 19.1202 18.2075 19.1202 17.9146 18.8273L13.3613 14.2741V22.9634C13.3613 23.3776 13.0255 23.7134 12.6113 23.7134C12.1971 23.7134 11.8613 23.3776 11.8613 22.9634V14.274L7.30802 18.8273C7.01512 19.1202 6.54025 19.1202 6.24736 18.8273C5.95446 18.5344 5.95446 18.0596 6.24736 17.7667L10.8006 13.2134H2.11133C1.69711 13.2134 1.36133 12.8776 1.36133 12.4634C1.36133 12.0492 1.69711 11.7134 2.11133 11.7134H10.8006L6.24735 7.16008C5.95446 6.86719 5.95446 6.39231 6.24735 6.09942C6.54024 5.80653 7.01512 5.80653 7.30801 6.09942L11.8613 10.6527V1.96338Z" fill="#1F1F1F"/>
</g>
</svg>
